<svg width="345" height="88" viewBox="0 0 345 88" fill="none" xmlns="http://www.w3.org/2000/svg">
<g clip-path="url(#clip0_510_11583)">
<path fill-rule="evenodd" clip-rule="evenodd" d="M23.5192 18.6534C28.9601 18.6534 33.7293 16.1381 37.1589 13.4242C40.5123 10.7706 43.332 7.33152 44.5609 4.36996L34.9293 0C34.6396 0.698085 33.2511 2.74843 30.8235 4.6694C28.4722 6.53004 25.8876 7.67443 23.5192 7.67443V18.6534ZM70.2703 3.50032V87.9793H83.2164V3.50032H70.2703ZM107.076 29.6629C108.438 29.2875 109.917 29.0784 111.501 29.0784C116.703 29.0784 120.813 30.3731 123.635 33.1154C125.321 34.7525 126.915 37.2608 127.916 41.1612C125.194 41.0842 122.379 41.0901 119.525 41.0961L119.509 41.0962H119.505C118.727 41.0977 117.946 41.0994 117.162 41.0994C102.054 41.0994 92.0938 50.2197 90.1713 61.3234C88.2448 72.4501 94.7943 83.9884 108.689 86.9739C119.948 89.3931 130.448 84.9375 135.996 74.6594C139.258 68.6144 140.628 61.5386 141.11 55.8908C143.173 56.8724 144.917 58.269 146.501 60.2989C146.889 60.7964 147.31 61.7164 147.655 63.2464C147.994 64.7554 148.24 66.7619 148.346 69.3439C148.473 72.45 148.401 75.6 148.324 78.9331V78.938V78.9388C148.275 81.0466 148.225 83.2259 148.225 85.4855V86.7292H160.58V85.4855C160.58 83.7557 160.623 81.8146 160.668 79.7758V79.752C160.746 76.1554 160.832 72.2601 160.691 68.8316C160.477 63.6367 159.751 57.1585 156.224 52.6398C151.9 47.0979 146.647 44.169 140.786 42.6694C139.651 34.7473 136.753 28.5913 132.225 24.1916C126.287 18.423 118.568 16.6646 111.501 16.6646C109.628 16.6646 107.808 16.8418 106.058 17.1765L107.076 29.6629ZM128.889 53.6139C126.084 53.5032 122.958 53.5068 119.378 53.5113H119.374H119.37C118.652 53.5123 117.916 53.5131 117.162 53.5131C107.432 53.5131 103.133 58.8938 102.344 63.4509C101.944 65.7617 102.352 68.198 103.728 70.2419C105.097 72.274 107.497 74.0232 111.273 74.8345C114.342 75.4939 117.073 75.2954 119.377 74.3049C121.673 73.3179 123.644 71.5013 125.134 68.7421C127.544 64.2776 128.597 58.3986 128.889 53.6139ZM204.575 48.4516C204.575 45.1297 203.378 42.2656 200.925 39.8014C198.568 37.4326 195.723 36.2561 192.315 36.2561C189.009 36.2561 186.159 37.4593 183.706 39.9236C182.609 41.0251 181.722 42.3561 181.05 43.9324L181.045 43.9427L181.04 43.9528C180.38 45.4286 180.055 46.925 180.055 48.4516V86.3472H167V24.2394H180.055V27.4885C181.31 26.4319 182.747 25.5136 184.358 24.7301C187.014 23.4387 189.671 22.7733 192.315 22.7733C195.722 22.7733 198.967 23.4576 202.042 24.827C205.186 26.1104 207.954 27.9514 210.336 30.3458C212.644 32.6633 214.433 35.4053 215.708 38.558C217.073 41.6502 217.752 44.9526 217.752 48.4516V86.3472H204.575V48.4516ZM242.842 84.5364L242.826 84.53C239.039 82.8383 235.671 80.5113 232.726 77.5532C229.855 74.6689 227.58 71.2792 225.9 67.3958L225.893 67.381L225.887 67.366C224.287 63.3889 223.486 59.2396 223.486 54.9268C223.486 50.6142 224.287 46.5023 225.89 42.6013L225.896 42.5891C227.575 38.6237 229.851 35.1894 232.726 32.3006C235.673 29.3396 239.047 27.0501 242.842 25.4395C246.728 23.7431 250.826 22.8955 255.125 22.8955C265.1 22.8955 273.546 27.1663 280.403 35.568L281.327 36.7012L269.733 43.4221L269.061 42.7086C265.058 38.4548 260.43 36.3782 255.125 36.3782C252.617 36.3782 250.231 36.8734 247.956 37.864L247.947 37.8681L247.937 37.872C245.735 38.7875 243.805 40.0809 242.137 41.7562C240.469 43.4318 239.137 45.4171 238.141 47.7243C237.156 50.0103 236.663 52.4075 236.663 54.9268C236.663 57.4462 237.156 59.8435 238.141 62.1294C239.137 64.4366 240.469 66.4219 242.137 68.0975C243.806 69.7743 245.74 71.1106 247.947 72.1077C250.222 73.0189 252.612 73.4755 255.125 73.4755C260.43 73.4755 265.058 71.3989 269.061 67.1452L269.733 66.4317L281.327 73.1525L280.403 74.2858C273.546 82.6874 265.1 86.958 255.125 86.958C250.833 86.958 246.74 86.1542 242.857 84.5427L242.842 84.5364ZM297.218 64.6174C298.61 66.6347 300.185 68.3283 301.94 69.708L301.941 69.7095C305.117 72.2164 308.817 73.4755 313.094 73.4755C319.821 73.4755 325.337 70.2488 329.689 63.5335L330.336 62.5349L341.685 69.2861L341.021 70.3645C337.767 75.6453 333.738 79.7456 328.929 82.6287C324.111 85.5157 318.824 86.958 313.094 86.958C308.802 86.958 304.709 86.1542 300.826 84.5427L300.815 84.5388L300.805 84.534C296.935 82.8439 293.522 80.516 290.573 77.5532C287.625 74.5906 285.308 71.1613 283.626 67.2736L283.621 67.2631L283.617 67.2525C282.013 63.3515 281.212 59.2396 281.212 54.9268C281.212 50.6142 282.013 46.5023 283.617 42.6013L283.622 42.5891C285.302 38.622 287.617 35.1503 290.567 32.1847C293.442 29.2129 296.825 26.9208 300.705 25.311L300.713 25.3074C304.671 23.6996 308.802 22.8955 313.094 22.8955C317.385 22.8955 321.476 23.6992 325.358 25.3094C329.32 26.919 332.747 29.2128 335.628 32.1912C341.835 38.5978 344.975 46.0707 344.975 54.5604C344.975 56.0952 344.848 57.7047 344.597 59.3874L344.439 60.4465H295.468C295.688 61.7455 296.254 63.1329 297.218 64.6174ZM328.375 42.9339C326.802 40.6763 324.657 38.8517 321.904 37.4687C319.16 36.0906 316.229 35.4009 313.094 35.4009C309.959 35.4009 307.028 36.0906 304.284 37.4687C301.528 38.8533 299.335 40.6836 297.678 42.9538C296.388 44.744 295.649 46.6052 295.431 48.552H330.753C330.525 46.6167 329.754 44.7618 328.402 42.9723L328.388 42.9534L328.375 42.9339ZM16.0059 64.6177C17.3978 66.635 18.9726 68.3285 20.7274 69.7082L20.7293 69.7097C23.9051 72.2166 27.6048 73.4758 31.8817 73.4758C38.6084 73.4758 44.1246 70.249 48.4769 63.5338L49.1242 62.5351L60.4728 69.2863L59.8083 70.3647C56.5546 75.6455 52.5265 79.7464 47.7161 82.6287C42.8986 85.5165 37.6118 86.9588 31.8817 86.9588C27.5892 86.9588 23.4964 86.1542 19.6137 84.5427L19.6032 84.5388L19.5927 84.534C15.7231 82.8439 12.3098 80.516 9.36118 77.5534C6.41245 74.5909 4.09554 71.1617 2.4131 67.2738L2.40855 67.2634L2.4042 67.2527C0.800454 63.3517 0 59.2398 0 54.9272C0 50.6145 0.800454 46.5025 2.4042 42.6015L2.40922 42.5893C4.08945 38.6222 6.40474 35.1506 9.35482 32.185C12.23 29.2132 15.6127 26.9211 19.4921 25.3112L19.5007 25.3076C23.4592 23.6999 27.5892 22.8957 31.8817 22.8957C36.1726 22.8957 40.2638 23.6993 44.1453 25.3094C48.1068 26.919 51.5346 29.2127 54.4145 32.1912C60.623 38.5977 63.7634 46.0708 63.7634 54.5606C63.7634 56.0955 63.6361 57.705 63.3849 59.3877L63.2267 60.4468H14.2562C14.4762 61.7457 15.0419 63.1332 16.0059 64.6177ZM47.1761 42.9537L47.1625 42.9342C45.5895 40.6765 43.4446 38.8519 40.6916 37.4689C37.9482 36.0909 35.0171 35.4011 31.8817 35.4011C28.7463 35.4011 25.8151 36.0909 23.0718 37.4689C20.3157 38.8534 18.1233 40.6834 16.4657 42.9533C15.1759 44.7437 14.4367 46.6052 14.2184 48.5522H49.5414C49.3127 46.617 48.5415 44.7621 47.1904 42.9727L47.1761 42.9537Z" fill="black"/>
</g>
<defs>
<clipPath id="clip0_510_11583">
<rect width="345" height="88" fill="white"/>
</clipPath>
</defs>
</svg>
