<svg width="67" height="67" viewBox="0 0 67 67" fill="none" xmlns="http://www.w3.org/2000/svg">
<path d="M16.185 51.9885L3.09926 65.0746C2.77609 65.3978 2.2503 65.3978 1.92456 65.0746C1.6014 64.7514 1.6014 64.2256 1.92456 63.8999L15.0103 50.8138C15.3335 50.4906 15.8593 50.4906 16.185 50.8138C16.5081 51.1395 16.5081 51.6653 16.185 51.9885ZM2.41444 55.0689L10.8397 46.6434C11.1629 46.3202 11.1629 45.7944 10.8397 45.4686C10.5166 45.1455 9.99077 45.1455 9.66504 45.4686L1.24237 53.8968C0.919209 54.2199 0.919209 54.7458 1.24237 55.0715C1.56554 55.3947 2.09127 55.3946 2.41444 55.0689ZM56.9543 29.8179L50.6706 36.1018L50.2397 44.0631C50.0781 47.0512 48.8239 49.8597 46.708 51.9758L35.8612 62.8249C35.6175 63.0685 35.2482 63.1352 34.9353 62.9967C34.6198 62.8556 34.4275 62.5376 34.4454 62.1939L35.0097 51.7624L33.4708 53.3014C33.163 53.622 32.6064 53.622 32.2961 53.3014L30.293 51.2982L27.2819 56.9127C27.0408 57.3949 26.3355 57.5001 25.9636 57.1076L9.89244 41.0314C9.50002 40.6595 9.60518 39.9567 10.0874 39.713L15.7017 36.7019L13.6986 34.6988C13.5421 34.5423 13.4549 34.332 13.4549 34.1114C13.4549 33.8908 13.5421 33.6805 13.6986 33.5241L15.2375 31.9851L4.80633 32.5494C4.07023 32.6161 3.63682 31.6363 4.17539 31.1336L15.0222 20.2866C17.1381 18.1705 19.9491 16.9163 22.9347 16.7548L30.8957 16.3239L37.1794 10.04C40.9266 6.29275 45.6126 3.55859 50.7267 2.13514C55.2844 0.860415 60.1369 0.650105 64.7816 1.55549C65.115 1.61961 65.3741 1.87866 65.4382 2.21209C67.4105 12.0789 64.0972 22.7542 56.9543 29.8179ZM16.9952 30.2309L29.1394 18.0863L23.0249 18.4172C20.4473 18.5557 18.0211 19.6381 16.1952 21.4642L6.88217 30.7775L16.9952 30.2309ZM29.0704 50.0727L16.9289 37.9308L11.8583 40.6496L26.3517 55.1434L29.0704 50.0727ZM36.8877 47.5386L19.4627 30.1104C18.5394 31.0338 16.4028 33.1703 15.459 34.1142C16.6131 35.2684 29.1448 47.8004 30.6812 49.3343L32.887 51.54C33.8231 50.6039 35.9721 48.4543 36.8877 47.5386ZM48.9137 37.859L38.6494 48.1263L36.7694 50.0063L36.2231 60.1193L45.5387 50.8035C47.3648 48.9773 48.4472 46.5509 48.5856 43.9735L48.9137 37.859ZM63.1275 16.2883C60.0344 13.1926 53.8046 6.9652 50.7115 3.87195C46.0512 5.25186 41.7885 7.78589 38.3545 11.218C34.3407 15.232 24.7534 24.8195 20.6347 28.9384L38.0624 46.3666C38.0624 46.364 49.2729 35.1531 49.2729 35.1531L55.7798 28.6461C59.214 25.2117 61.7479 20.9482 63.1275 16.2883ZM63.9097 3.08731C62.9017 2.9129 61.8733 2.78979 60.8474 2.7231C58.0646 2.54869 55.2843 2.77183 52.5711 3.38482L63.6122 14.4263C64.4534 10.7252 64.5663 6.83717 63.9097 3.08731ZM20.3572 56.1592L11.9319 64.5847C11.4035 65.0771 11.8088 66.0261 12.5192 66.0005C12.7321 66.0005 12.945 65.9184 13.1066 65.7568L21.5319 57.3313C22.291 56.5669 21.1292 55.3923 20.3572 56.1592ZM52.3604 14.6369C56.6924 18.9074 53.5146 26.4328 47.5027 26.3606C41.4909 26.4298 38.3158 18.9049 42.6451 14.6369C45.3252 11.9567 49.6829 11.9593 52.3604 14.6369ZM43.8196 15.8117C39.1055 20.8336 46.1638 27.8945 51.1884 23.1807C55.9025 18.1588 48.8442 11.0979 43.8196 15.8117Z" fill="black" stroke="black" stroke-width="0.5"/>
</svg>
