<svg width="54" height="66" viewBox="0 0 54 66" fill="none" xmlns="http://www.w3.org/2000/svg">
<path fill-rule="evenodd" clip-rule="evenodd" d="M11.8692 17.627C11.6713 17.627 11.4816 17.7059 11.3416 17.8464C11.2017 17.9868 11.1231 18.1773 11.123 18.3759V58.7408C11.1231 58.9395 11.2017 59.13 11.3416 59.2704C11.4816 59.4109 11.6713 59.4898 11.8692 59.4898H41.9981C42.196 59.4898 42.3858 59.4109 42.5257 59.2704C42.6656 59.13 42.7443 58.9395 42.7443 58.7408V18.3759C42.7443 18.1773 42.6656 17.9868 42.5257 17.8464C42.3858 17.7059 42.196 17.627 41.9981 17.627H11.8692ZM12.6153 19.1249H41.252V57.9919H12.6153V19.1249Z" fill="black" stroke="black" stroke-width="0.5"/>
<path fill-rule="evenodd" clip-rule="evenodd" d="M24.5392 0.492676C21.9554 0.492676 19.9186 2.8193 19.9186 5.56651C19.9186 6.01112 19.9733 6.44165 20.0732 6.85206H15.6008C15.4029 6.85208 15.2132 6.93104 15.0732 7.07151C14.9333 7.21198 14.8547 7.40245 14.8547 7.6011V12.2131H6.09382C5.89593 12.2132 5.70615 12.2921 5.56622 12.4325C5.4263 12.573 5.34768 12.7635 5.34766 12.9622V64.1617C5.34768 64.3604 5.4263 64.5508 5.56622 64.6913C5.70615 64.8318 5.89593 64.9107 6.09382 64.9108H47.7645C47.9624 64.9107 48.1521 64.8318 48.2921 64.6913C48.432 64.5508 48.5106 64.3604 48.5106 64.1617V12.9622C48.5106 12.7635 48.432 12.573 48.2921 12.4325C48.1521 12.2921 47.9624 12.2132 47.7645 12.2131H39.011V7.6011C39.011 7.40245 38.9324 7.21198 38.7924 7.07151C38.6525 6.93104 38.4627 6.85208 38.2648 6.85206H33.7881C33.8875 6.43978 33.9396 6.00891 33.9396 5.56651C33.9396 2.8193 31.9044 0.492676 29.3265 0.492676H24.5392ZM24.5392 1.99077H29.3265C30.9971 1.99077 32.4473 3.55343 32.4473 5.56651C32.4473 6.15559 32.3223 6.70058 32.0997 7.18402C32.0214 7.30133 31.9777 7.43847 31.9737 7.57962C31.9697 7.72076 32.0056 7.86016 32.0771 7.98175C32.085 7.99535 32.0934 8.00869 32.1022 8.02176C32.1051 8.02631 32.1081 8.0308 32.1111 8.03529C32.1911 8.15188 32.3023 8.24332 32.4319 8.29904C32.5616 8.35476 32.7043 8.3725 32.8435 8.35015H37.5187V12.2131H16.347V8.35015H21.0168C21.1585 8.37246 21.3035 8.35334 21.4346 8.2951C21.5656 8.23687 21.6772 8.14193 21.756 8.02171C21.7629 8.01127 21.7695 8.00067 21.7758 7.98989C21.7799 7.98324 21.7839 7.97651 21.7877 7.96973C21.8549 7.85037 21.8882 7.71482 21.8839 7.57779C21.8796 7.44076 21.838 7.30752 21.7635 7.19261C21.5413 6.70122 21.4109 6.15202 21.4109 5.56647C21.4109 3.55338 22.8595 1.99077 24.5392 1.99077ZM6.83998 13.7112H47.0183V63.4127H6.83998V13.7112Z" fill="black" stroke="black" stroke-width="0.5"/>
<path fill-rule="evenodd" clip-rule="evenodd" d="M26.0577 24.1353C25.9365 24.1386 25.8179 24.1715 25.7123 24.2311C25.6066 24.2908 25.517 24.3754 25.4512 24.4776L21.1345 30.9806L18.9175 28.3238C18.8551 28.2466 18.7781 28.1827 18.6908 28.1357C18.6036 28.0888 18.508 28.0597 18.4094 28.0502C18.3109 28.0407 18.2115 28.0509 18.117 28.0804C18.0224 28.1098 17.9347 28.1578 17.8588 28.2216C17.7829 28.2855 17.7205 28.3638 17.675 28.452C17.6296 28.5403 17.6021 28.6368 17.5942 28.7358C17.5863 28.8348 17.598 28.9345 17.6288 29.0289C17.6596 29.1233 17.7088 29.2106 17.7735 29.2858L20.6308 32.7096C20.7053 32.7988 20.7995 32.8694 20.9059 32.9157C21.0123 32.962 21.128 32.9828 21.2438 32.9764C21.3596 32.97 21.4723 32.9366 21.573 32.8788C21.6737 32.8211 21.7596 32.7406 21.8238 32.6437L26.6933 25.308C26.7713 25.1941 26.8163 25.0608 26.8234 24.9227C26.8306 24.7847 26.7995 24.6474 26.7337 24.5259C26.668 24.4045 26.57 24.3037 26.4507 24.2348C26.3314 24.1658 26.1954 24.1315 26.0577 24.1353Z" fill="black" stroke="black" stroke-width="0.5"/>
<path fill-rule="evenodd" clip-rule="evenodd" d="M18.7646 45.6856C18.6657 45.6842 18.5676 45.7026 18.4758 45.7396C18.3841 45.7766 18.3005 45.8315 18.2301 45.9012C18.1597 45.9709 18.1038 46.054 18.0656 46.1455C18.0275 46.2371 18.0078 46.3354 18.0078 46.4347C18.0078 46.5339 18.0275 46.6322 18.0656 46.7238C18.1038 46.8154 18.1597 46.8984 18.2301 46.9681C18.3005 47.0378 18.3841 47.0928 18.4758 47.1298C18.5676 47.1668 18.6657 47.1851 18.7646 47.1837H35.093C35.1918 47.1851 35.29 47.1668 35.3818 47.1298C35.4735 47.0928 35.557 47.0378 35.6274 46.9681C35.6978 46.8984 35.7538 46.8154 35.7919 46.7238C35.8301 46.6322 35.8497 46.5339 35.8497 46.4347C35.8497 46.3354 35.8301 46.2371 35.7919 46.1455C35.7538 46.054 35.6978 45.9709 35.6274 45.9012C35.557 45.8315 35.4735 45.7766 35.3818 45.7396C35.29 45.7026 35.1918 45.6842 35.093 45.6856H18.7646Z" fill="black" stroke="black" stroke-width="0.5"/>
<path fill-rule="evenodd" clip-rule="evenodd" d="M18.7646 37.7564C18.6657 37.755 18.5676 37.7734 18.4758 37.8104C18.3841 37.8474 18.3005 37.9023 18.2301 37.972C18.1597 38.0417 18.1038 38.1248 18.0656 38.2163C18.0275 38.3079 18.0078 38.4062 18.0078 38.5055C18.0078 38.6047 18.0275 38.703 18.0656 38.7946C18.1038 38.8862 18.1597 38.9692 18.2301 39.0389C18.3005 39.1086 18.3841 39.1636 18.4758 39.2006C18.5676 39.2376 18.6657 39.2559 18.7646 39.2545H35.093C35.1918 39.2559 35.29 39.2376 35.3818 39.2006C35.4735 39.1636 35.557 39.1086 35.6274 39.0389C35.6978 38.9692 35.7538 38.8862 35.7919 38.7946C35.8301 38.703 35.8497 38.6047 35.8497 38.5055C35.8497 38.4062 35.8301 38.3079 35.7919 38.2163C35.7538 38.1248 35.6978 38.0417 35.6274 37.972C35.557 37.9023 35.4735 37.8474 35.3818 37.8104C35.29 37.7734 35.1918 37.755 35.093 37.7564H18.7646Z" fill="black" stroke="black" stroke-width="0.5"/>
<path fill-rule="evenodd" clip-rule="evenodd" d="M28.8107 29.9405C28.7118 29.9392 28.6138 29.9576 28.5221 29.9947C28.4304 30.0317 28.347 30.0867 28.2767 30.1564C28.2064 30.2261 28.1505 30.3091 28.1124 30.4006C28.0743 30.4921 28.0547 30.5903 28.0547 30.6895C28.0547 30.7887 28.0743 30.887 28.1124 30.9785C28.1505 31.07 28.2064 31.153 28.2767 31.2227C28.347 31.2924 28.4304 31.3473 28.5221 31.3844C28.6138 31.4215 28.7118 31.4399 28.8107 31.4386H35.0936C35.1924 31.4399 35.2905 31.4215 35.3821 31.3844C35.4738 31.3473 35.5572 31.2924 35.6275 31.2227C35.6978 31.153 35.7537 31.07 35.7918 30.9785C35.8299 30.887 35.8495 30.7887 35.8495 30.6895C35.8495 30.5903 35.8299 30.4921 35.7918 30.4006C35.7537 30.3091 35.6978 30.2261 35.6275 30.1564C35.5572 30.0867 35.4738 30.0317 35.3821 29.9947C35.2905 29.9576 35.1924 29.9392 35.0936 29.9405H28.8107Z" fill="black" stroke="black" stroke-width="0.5"/>
</svg>
