<svg width="57" height="65" viewBox="0 0 57 65" fill="none" xmlns="http://www.w3.org/2000/svg">
<path d="M52.7634 30.8506C50.9082 30.8506 48.9949 32.1231 47.6471 33.4209C47.6243 33.4427 41.1422 38.8189 38.9389 40.992C38.5392 41.3857 37.7606 41.7051 37.1997 41.7051C36.5069 42.4817 35.712 43.1655 34.8372 43.7363H37.1997C38.2878 43.7363 39.589 43.2027 40.3651 42.4381C41.6099 41.2107 44.6894 38.5332 48.8129 35.0936C48.9667 34.9656 49.0475 34.8918 49.0559 34.8843C50.3389 33.649 51.7597 32.8818 52.7634 32.8818C53.2697 32.8818 53.6783 33.0718 54.0874 33.4973C55.2642 34.7216 53.1725 37.0173 52.7063 37.4988L43.2305 46.9012L43.1839 46.9478L43.1402 46.9974C42.4717 47.7527 39.1209 51.6699 38.797 54.6111L38.7847 54.7217V54.8333V60.6846C38.7847 61.9447 37.7596 62.9697 36.4995 62.9697H20.9155C19.6554 62.9697 18.6303 61.9447 18.6303 60.6846V54.8333V54.7212L18.6179 54.6097C18.2886 51.6357 14.7094 47.7071 13.9953 46.9498L13.9598 46.9121L13.9227 46.8764C5.364 38.6776 4.32704 37.6852 4.19166 37.5558C3.0798 36.4911 2.39822 35.3203 2.41233 34.5C2.4168 34.2376 2.48795 33.8315 3.0503 33.3287C3.36103 33.0509 3.66328 32.927 4.02972 32.927C4.95287 32.927 6.29903 33.6922 7.63056 34.9736L7.66748 35.0088L7.70643 35.043L16.37 42.5724C17.1588 43.2578 18.4394 43.7363 19.4845 43.7363H22.0382C21.1632 43.1655 20.3685 42.4817 19.6755 41.7051H19.4845C18.9237 41.7051 18.1257 41.407 17.7023 41.0391L9.03893 33.5096C7.71633 32.2372 5.84479 30.8962 4.02972 30.8957C3.22316 30.8957 2.42772 31.161 1.69647 31.8146C-0.863159 34.1013 0.756966 37.0787 2.78674 39.0227C2.82889 39.0619 12.5175 48.3434 12.5175 48.3434C12.5175 48.3434 16.3278 52.384 16.5991 54.8333V60.6846C16.5991 63.0684 18.5314 65.001 20.9155 65.001H36.4995C38.8833 65.001 40.8159 63.0684 40.8159 60.6846V54.8333C41.0857 52.384 44.6612 48.3434 44.6612 48.3434L54.1509 38.927C55.8837 37.1447 57.6213 34.2431 55.5524 32.0899C54.6994 31.2032 53.7393 30.8506 52.7634 30.8506Z" fill="black"/>
<path d="M28.437 43.6094C33.7991 43.6094 38.1492 39.2602 38.1492 33.8985C38.1492 28.5342 33.7991 24.1855 28.437 24.1855C23.0742 24.1855 18.7246 28.5342 18.7246 33.8985C18.7246 39.2602 23.0742 43.6094 28.437 43.6094ZM28.437 26.2168C32.6723 26.2168 36.118 29.6629 36.118 33.8985C36.118 38.133 32.6723 41.5781 28.437 41.5781C24.2017 41.5781 20.7559 38.133 20.7559 33.8985C20.7559 29.6629 24.2017 26.2168 28.437 26.2168Z" fill="black"/>
<path d="M5.07812 26.915C7.88272 26.915 10.1562 24.6437 10.1562 21.8369C10.1562 19.0301 7.88272 16.7588 5.07812 16.7588C2.27352 16.7588 0 19.0301 0 21.8369C0 24.6437 2.27352 26.915 5.07812 26.915ZM5.07812 18.79C6.75827 18.79 8.125 20.1568 8.125 21.8369C8.125 23.5171 6.75827 24.8838 5.07812 24.8838C3.39797 24.8838 2.03125 23.5171 2.03125 21.8369C2.03125 20.1568 3.39797 18.79 5.07812 18.79Z" fill="black"/>
<path d="M28.4375 10.1572C31.2423 10.1572 33.5156 7.88593 33.5156 5.0791C33.5156 2.27227 31.2423 0.000976562 28.4375 0.000976562C25.6329 0.000976562 23.3594 2.27227 23.3594 5.0791C23.3594 7.88593 25.6329 10.1572 28.4375 10.1572ZM28.4375 2.03223C30.1176 2.03223 31.4844 3.39895 31.4844 5.0791C31.4844 6.75925 30.1176 8.12598 28.4375 8.12598C26.7573 8.12598 25.3906 6.75925 25.3906 5.0791C25.3906 3.39895 26.7573 2.03223 28.4375 2.03223Z" fill="black"/>
<path d="M14.2225 15.7432C15.1434 15.7432 16.0755 15.4927 16.9138 14.9676C19.2902 13.4793 20.0108 10.3482 18.5213 7.96977C17.557 6.43044 15.9051 5.58691 14.2154 5.58691C13.2944 5.58691 12.3619 5.83737 11.5238 6.3625C9.14738 7.85074 8.42659 10.9819 9.91626 13.3603C10.8806 14.8996 12.5327 15.7432 14.2225 15.7432ZM11.2498 9.98269C11.432 9.1902 11.9121 8.51577 12.6019 8.08383C13.0884 7.77934 13.6465 7.61816 14.2156 7.61816C15.2731 7.61816 16.2391 8.15274 16.7998 9.04786C17.6914 10.4716 17.2587 12.3546 15.8355 13.2463C15.349 13.5507 14.7913 13.7119 14.2225 13.7119C13.165 13.7119 12.1987 13.1773 11.6378 12.2822C11.2054 11.5919 11.0678 10.7751 11.2498 9.98269Z" fill="black"/>
<path d="M39.9601 14.4592C40.7987 14.9849 41.731 15.2353 42.6524 15.2353C44.342 15.2353 45.9934 14.3923 46.9579 12.8535C48.4487 10.4756 47.7281 7.34438 45.3527 5.85568C44.5141 5.32999 43.5813 5.07959 42.6599 5.07959C40.9703 5.07959 39.3189 5.92261 38.3544 7.46143C36.8642 9.83932 37.5842 12.97 39.9601 14.4592ZM40.0757 8.54003C40.6366 7.64491 41.6026 7.11084 42.6604 7.11084C43.2292 7.11084 43.7871 7.27202 44.274 7.57696C44.9634 8.00891 45.4434 8.68338 45.6254 9.47582C45.8074 10.2683 45.6696 11.0846 45.2367 11.7748C44.6758 12.67 43.7097 13.2041 42.6524 13.2041C42.0836 13.2041 41.5253 13.0429 41.0388 12.7379C39.616 11.8463 39.184 9.96282 40.0757 8.54003Z" fill="black"/>
<path d="M51.7969 26.915C54.6017 26.915 56.875 24.6437 56.875 21.8369C56.875 19.0301 54.6017 16.7588 51.7969 16.7588C48.9925 16.7588 46.7188 19.0301 46.7188 21.8369C46.7188 24.6437 48.9925 26.915 51.7969 26.915ZM51.7969 18.79C53.477 18.79 54.8438 20.1568 54.8438 21.8369C54.8438 23.5171 53.477 24.8838 51.7969 24.8838C50.1167 24.8838 48.75 23.5171 48.75 21.8369C48.75 20.1568 50.1167 18.79 51.7969 18.79Z" fill="black"/>
</svg>
