<svg width="68" height="65" viewBox="0 0 68 65" fill="none" xmlns="http://www.w3.org/2000/svg">
<path d="M29.1611 20.6437C25.7257 20.6437 22.6311 22.7153 21.3143 25.8924C20.0004 29.0695 20.7268 32.727 23.1553 35.1583C25.5863 37.5897 29.2395 38.3196 32.4127 37.0015C35.586 35.6861 37.6551 32.5851 37.6551 29.1452C37.6499 24.4505 33.8499 20.6457 29.1611 20.6437ZM29.1611 35.8119C26.4705 35.8119 24.042 34.1866 23.0113 31.6975C21.9807 29.2057 22.5498 26.3385 24.4537 24.432C26.3576 22.5258 29.2214 21.956 31.7105 22.9879C34.1966 24.0198 35.8199 26.4485 35.8199 29.1451C35.8147 32.8237 32.8379 35.8067 29.1611 35.8119ZM60.1855 30.0669C60.6471 31.792 62.3124 32.9053 64.0799 32.6716C65.8449 32.4405 67.1667 30.9334 67.1667 29.1479C67.1667 27.3651 65.8449 25.858 64.0799 25.6243C62.3124 25.3932 60.6471 26.5065 60.1855 28.2289H49.6062C49.5668 27.1445 49.4383 26.0654 49.2259 24.9994H54.7568C55.2655 24.9994 55.6747 24.5871 55.6747 24.0804V20.4044C57.395 19.9449 58.5096 18.2776 58.2762 16.5105C58.0428 14.7408 56.5375 13.4201 54.7568 13.4201C52.9761 13.4201 51.4708 14.7407 51.24 16.5105C51.0066 18.2776 52.1185 19.9449 53.8389 20.4044V23.1588H48.767C47.8517 20.1077 46.2389 17.3114 44.0543 14.9952L46.9811 11.7079H57.4792C57.9407 13.4304 59.606 14.5437 61.371 14.31C63.1385 14.0789 64.4577 12.5718 64.4577 10.7889C64.4577 9.0035 63.1386 7.49636 61.371 7.26526C59.606 7.03158 57.9407 8.14487 57.4792 9.86731H46.5722C46.31 9.86731 46.0608 9.98021 45.8877 10.1771L42.7381 13.7139V13.7113C38.7886 10.1955 33.6304 8.34701 28.3481 8.55707C23.0638 8.76449 18.0682 11.012 14.4039 14.8298C10.7429 18.6449 8.69733 23.7333 8.69995 29.0267C8.69995 36.717 12.4292 41.189 15.7204 45.1326C17.2047 46.7973 18.5265 48.5958 19.6725 50.5099C18.3586 50.5887 17.2755 51.5655 17.0553 52.8625C16.835 54.1623 17.5378 55.4409 18.7494 55.9477C18.3324 56.8273 18.3953 57.8592 18.912 58.681C19.4312 59.5029 20.336 59.9991 21.3063 59.9991H21.4296V60.0568C21.4322 62.7849 23.643 64.9984 26.3704 65.001H31.9485C34.6759 64.9984 36.8841 62.7849 36.8893 60.0568V60.0017L37.0178 59.9991C38.5782 59.9964 39.8449 58.7282 39.8449 57.1633C39.8449 56.7432 39.7505 56.3283 39.5695 55.9502C40.7811 55.4435 41.4866 54.1648 41.2662 52.8677C41.0486 51.568 39.9655 50.5939 38.6516 50.5125C39.7976 48.5984 41.1194 46.7972 42.6037 45.1351C42.7034 45.0144 42.8057 44.8936 42.9079 44.7702L45.8871 48.1179C46.0628 48.3122 46.312 48.4251 46.5742 48.4251H57.4811C57.9401 50.1476 59.6054 51.2609 61.3703 51.0272C63.1379 50.7935 64.4571 49.289 64.4571 47.5035C64.4571 45.7207 63.138 44.2136 61.3703 43.9825C59.6054 43.7488 57.9401 44.8621 57.4811 46.5845H46.983L44.0852 43.3313C46.1465 40.9236 47.7252 38.1404 48.7323 35.1342H53.8383V37.8859C52.1206 38.3481 51.0087 40.0128 51.2394 41.7798C51.4728 43.5469 52.9781 44.8677 54.7562 44.8677C56.5369 44.8677 58.0422 43.547 58.273 41.7798C58.5064 40.0128 57.3945 38.3481 55.6741 37.8859V34.2153C55.6741 33.9711 55.5797 33.7374 55.4066 33.5641C55.2335 33.3908 55.0001 33.2937 54.7562 33.2937H49.2044C49.4194 32.2303 49.5506 31.1511 49.5978 30.0667L60.1855 30.0669ZM53.0442 16.973C53.0442 16.2799 53.4612 15.655 54.1011 15.3924C54.741 15.1272 55.4779 15.2742 55.9656 15.7626C56.4561 16.2536 56.6029 16.9887 56.338 17.6294C56.0732 18.2701 55.449 18.6875 54.7567 18.6901C54.303 18.6901 53.8676 18.509 53.545 18.186C53.2251 17.8657 53.0442 17.4273 53.0442 16.973ZM60.9092 9.07233C61.6015 9.07233 62.2257 9.48981 62.4906 10.1331C62.7581 10.7737 62.6113 11.5116 62.1209 12.0025C61.6304 12.4909 60.8935 12.6379 60.2537 12.3727C59.6138 12.1076 59.1968 11.4827 59.1968 10.7894C59.1968 10.3326 59.3751 9.89673 59.6977 9.57638C60.0176 9.25342 60.4555 9.07233 60.9092 9.07233ZM60.9092 45.7896C61.6015 45.7896 62.2231 46.2071 62.488 46.8477C62.7529 47.4884 62.606 48.2236 62.1182 48.7146C61.6278 49.2029 60.8935 49.35 60.2537 49.0848C59.6138 48.8196 59.1968 48.1973 59.1968 47.5041C59.1942 47.0499 59.3751 46.614 59.6977 46.291C60.0176 45.9681 60.4555 45.7896 60.9092 45.7896ZM56.4667 41.3181C56.4667 42.0113 56.0497 42.6362 55.4098 42.9014C54.7699 43.1666 54.033 43.0196 53.5426 42.5286C53.0548 42.0376 52.908 41.2998 53.1755 40.6591C53.4403 40.0185 54.0645 39.6036 54.7569 39.6036C55.7036 39.6063 56.4667 40.3729 56.4667 41.3181ZM63.6154 27.4311C64.3077 27.4311 64.9345 27.8485 65.1994 28.4892C65.4643 29.1299 65.3174 29.8703 64.827 30.3613C64.3366 30.8523 63.5997 30.9967 62.9598 30.7316C62.3199 30.4664 61.9003 29.8415 61.9003 29.1456C61.9003 28.6914 62.0813 28.2555 62.4038 27.9326C62.7238 27.6122 63.1616 27.4311 63.6154 27.4311ZM47.7699 28.2267H44.8248C44.8012 27.8144 44.7618 27.4022 44.7041 26.9926C44.6517 26.625 44.3816 26.3231 44.0197 26.2312L41.6568 25.6325C41.5965 25.4198 41.531 25.2072 41.4601 24.9971H47.3503H47.3477C47.5837 26.0579 47.7226 27.1396 47.7699 28.2267ZM40.0096 31.6925C39.8391 32.4145 39.5978 33.1209 39.2884 33.7957C39.2753 33.8193 39.2648 33.8429 39.2543 33.8666V33.8692C39.0681 34.2656 38.8609 34.6517 38.6301 35.0245C38.4466 35.3186 38.4439 35.6888 38.6196 35.9829L39.8286 38.0046C39.5559 38.3329 39.2674 38.6506 38.9658 38.9525L38.9606 38.9578C38.9474 38.9683 38.937 38.9814 38.9265 38.9919C38.6327 39.2834 38.3259 39.5617 38.0086 39.8269L35.9893 38.6164L35.9866 38.6191C35.6929 38.4405 35.3231 38.4458 35.032 38.627C34.0066 39.2676 32.8816 39.7323 31.7067 40.0081C31.371 40.0868 31.1061 40.3468 31.0249 40.6802L30.4505 42.9619C29.5956 43.0407 28.7328 43.0407 27.8779 42.9619L27.3009 40.6776L27.2983 40.675C27.2144 40.3442 26.9521 40.0842 26.6164 40.0081C25.4416 39.7324 24.3165 39.265 23.2911 38.6243C23 38.4432 22.6302 38.4405 22.3365 38.6165L20.3172 39.8269C19.6563 39.2781 19.0453 38.6663 18.4972 38.0021L19.7062 35.9856C19.8819 35.6915 19.8793 35.3213 19.6983 35.0272C19.0584 34.0006 18.5916 32.8768 18.3189 31.6979C18.2402 31.3644 17.9806 31.1018 17.6475 31.0178L15.3659 30.4402C15.3266 30.0069 15.3056 29.5763 15.3056 29.151C15.3056 28.7256 15.324 28.295 15.3659 27.8617L17.6475 27.2841C17.9806 27.2001 18.2402 26.9375 18.3189 26.6014C18.5916 25.4225 19.0558 24.2961 19.6957 23.2695C19.8766 22.9754 19.8793 22.6052 19.7036 22.3085L18.4946 20.292C19.0427 19.6303 19.6537 19.0185 20.3146 18.4698L22.3339 19.6802V19.6776C22.6276 19.8561 22.9974 19.8535 23.2885 19.6697C24.3139 19.0317 25.4389 18.5643 26.6138 18.2886C26.9495 18.2098 27.2118 17.9525 27.2957 17.6217L27.8726 15.3374L27.8752 15.3347C28.7302 15.256 29.593 15.256 30.4479 15.3347L31.0222 17.6164C31.1035 17.9525 31.3684 18.2125 31.7041 18.2886C32.879 18.5643 34.004 19.0317 35.0294 19.6723C35.3205 19.8535 35.6903 19.8561 35.984 19.6802L38.0033 18.4698C38.6668 19.0212 39.2752 19.6303 39.826 20.2946L38.617 22.3111C38.4413 22.6052 38.4439 22.9754 38.6248 23.2668C39.2621 24.2961 39.7289 25.4199 40.0069 26.5988C40.0856 26.9323 40.3426 27.1948 40.673 27.2788L42.9546 27.8565C42.9939 28.2845 43.0149 28.715 43.0149 29.1431C43.0149 29.5711 42.9939 30.0017 42.9546 30.4323L40.673 31.01V31.0126C40.3426 31.0992 40.0882 31.3591 40.0096 31.6925ZM46.8414 23.1566H40.6784C40.6103 23.0306 40.5447 22.9072 40.4765 22.7838L41.7275 20.6885C41.9215 20.3655 41.8979 19.9586 41.6698 19.6592C41.4023 19.3021 41.1138 18.9608 40.8149 18.63L42.8289 16.3719L42.8316 16.3693C44.6359 18.3201 46.0022 20.636 46.8414 23.1596L46.8414 23.1566ZM35.0529 60.0574C35.0503 61.772 33.663 63.161 31.9505 63.1636H26.3698C24.6572 63.161 23.2673 61.772 23.2673 60.0574V60.0023L35.0531 59.9997L35.0529 60.0574ZM37.0172 58.1643H21.3059C20.7578 58.1643 20.312 57.718 20.312 57.1692C20.312 56.6204 20.7578 56.174 21.3059 56.174H37.0172C37.5653 56.174 38.0111 56.6204 38.0111 57.1692C38.0111 57.718 37.5653 58.1643 37.0172 58.1643ZM39.4692 53.3384C39.4692 53.8871 39.026 54.3335 38.4752 54.3335H19.8422C19.2941 54.3335 18.8483 53.8871 18.8483 53.3384C18.8483 52.787 19.2941 52.3432 19.8422 52.3432H38.4752C39.0233 52.3432 39.4666 52.7869 39.4692 53.3357V53.3384ZM41.1948 43.9569C39.3984 45.9419 37.8511 48.1396 36.5896 50.5027H21.7331C20.4716 48.1396 18.927 45.9392 17.1305 43.9542C13.8865 40.0683 10.5349 36.0509 10.5349 29.0273C10.5323 24.2092 12.3943 19.5773 15.7275 16.1035C19.0607 12.6323 23.608 10.5844 28.4149 10.3953C33.222 10.2036 37.9161 11.884 41.5146 15.0848L39.5083 17.3376C39.2251 17.0882 38.934 16.8492 38.635 16.6208C38.3361 16.395 37.9296 16.3714 37.6096 16.563L35.5116 17.8155V17.8181C34.6148 17.3114 33.6602 16.9149 32.6714 16.634L32.0761 14.2656C31.9843 13.9033 31.6801 13.6302 31.3104 13.5804C29.8863 13.3861 28.444 13.3861 27.02 13.5804C26.6476 13.6302 26.3434 13.9033 26.2516 14.2656L25.6537 16.634H25.6563C24.6623 16.9123 23.7078 17.3088 22.8108 17.8181L20.7128 16.5657V16.563C20.3929 16.3714 19.9864 16.395 19.6875 16.6208C18.5414 17.4899 17.5212 18.5139 16.6532 19.6639C16.4277 19.9633 16.4067 20.3676 16.5982 20.6879L17.8491 22.7832V22.7858C17.3403 23.6838 16.9443 24.6395 16.6664 25.6321L14.3009 26.2307H14.2983C13.9364 26.3226 13.6636 26.6272 13.6138 27C13.4198 28.4231 13.4198 29.8672 13.6138 31.293C13.6636 31.6658 13.9364 31.9704 14.2983 32.0623L16.6637 32.6609H16.6664C16.9417 33.6535 17.3377 34.6091 17.8439 35.5072L16.5929 37.6025C16.4015 37.9254 16.4251 38.3298 16.6506 38.6291C17.5187 39.7765 18.5388 40.8005 19.6848 41.6722C19.9838 41.898 20.3903 41.9216 20.7102 41.7273L22.8082 40.4749C23.7051 40.9816 24.6597 41.3781 25.651 41.6564L26.249 44.0247C26.3408 44.3897 26.645 44.6601 27.0147 44.7126C28.4388 44.9069 29.8837 44.9069 31.3051 44.7126C31.6775 44.6601 31.9817 44.3897 32.0735 44.0247L32.6688 41.6564C33.6602 41.3781 34.6147 40.9816 35.5116 40.4749L37.607 41.7273C37.9296 41.9216 38.3361 41.898 38.6324 41.6722C38.934 41.4438 39.2251 41.2048 39.5057 40.9554L41.6667 43.3815C41.5093 43.5732 41.352 43.7649 41.192 43.9539L41.1948 43.9569ZM42.847 41.9404L40.8198 39.6639C41.1187 39.3305 41.4046 38.9865 41.6747 38.632L41.6721 38.6294C41.9002 38.3327 41.9212 37.9257 41.7298 37.6028L40.4788 35.5075C40.547 35.3841 40.6126 35.2607 40.6807 35.1346H46.8069L46.8043 35.1372C45.8864 37.6159 44.5463 39.916 42.8443 41.9376L42.847 41.9404ZM47.3288 33.2942H41.4596C41.5305 33.0842 41.5934 32.8741 41.6563 32.6588L44.0192 32.0602C44.3811 31.9709 44.6512 31.6689 44.7036 31.2987C44.7613 30.8917 44.8007 30.4795 44.8243 30.0647H47.7589C47.7091 31.1517 47.5649 32.2335 47.3288 33.2942ZM28.242 5.54901V0.896308C28.2577 0.39743 28.6642 0.000976562 29.1625 0.000976562C29.6581 0.000976562 30.0647 0.39745 30.0804 0.896308V5.54901C30.0646 6.04789 29.6582 6.44434 29.1625 6.44434C28.6642 6.44434 28.2577 6.04787 28.242 5.54901ZM14.2562 5.13678C14.0149 4.6983 14.1696 4.14687 14.6023 3.89743C15.035 3.64537 15.5884 3.78978 15.848 4.21776L18.1716 8.25079C18.4233 8.6919 18.2738 9.2538 17.8333 9.50587C17.3953 9.76056 16.8341 9.61089 16.5797 9.16978L14.2562 5.13678ZM3.92589 14.5606C4.18028 14.1195 4.74147 13.9698 5.18208 14.2245L9.21026 16.5535C9.64822 16.8082 9.7977 17.37 9.54594 17.8085C9.29155 18.2497 8.73037 18.3993 8.28975 18.1446L4.26158 15.8157C3.82362 15.561 3.67413 14.9991 3.92589 14.5606ZM5.59121 30.0676H0.941486C0.694968 30.0755 0.4537 29.981 0.275366 29.8077C0.0996571 29.6344 0 29.3981 0 29.1486C0 28.9018 0.0996571 28.6629 0.275366 28.4896C0.453694 28.3163 0.694968 28.2244 0.941486 28.2296H5.59121C6.08949 28.2428 6.48547 28.6524 6.48547 29.1486C6.48547 29.6475 6.08947 30.0545 5.59121 30.0676ZM9.54333 40.4863C9.66396 40.6989 9.69806 40.9484 9.63512 41.1847C9.57218 41.4211 9.41745 41.6206 9.20765 41.744L5.17947 44.0729C4.73889 44.3276 4.17766 44.1753 3.92328 43.7368C3.67152 43.2983 3.82101 42.7338 4.25896 42.4818L8.28714 40.1528V40.1502C8.49957 40.0294 8.7487 39.9953 8.98475 40.0583C9.22078 40.1213 9.42007 40.2762 9.54333 40.4863ZM40.1481 8.25364L42.4743 4.22061H42.4769C42.5949 4.00006 42.7942 3.83989 43.0329 3.77162C43.2715 3.70336 43.5285 3.73486 43.7436 3.86089C43.956 3.9843 44.1133 4.1891 44.1737 4.43067C44.234 4.67223 44.1946 4.92692 44.0661 5.13698L41.74 9.17001H41.7374C41.4856 9.61112 40.9218 9.76079 40.4838 9.50609C40.0458 9.25403 39.8937 8.69216 40.1481 8.25102L40.1481 8.25364Z" fill="black"/>
</svg>
