<svg width="65" height="65" viewBox="0 0 65 65" fill="none" xmlns="http://www.w3.org/2000/svg">
<circle cx="32.9803" cy="11.2079" r="10.4569" stroke="black" stroke-width="1.5"/>
<path d="M39.544 19.3728C39.7041 17.1848 38.6474 12.7767 33.14 12.6486C27.6326 12.5206 26.1491 17.078 26.0957 19.3728" stroke="black" stroke-width="1.5"/>
<circle cx="32.8208" cy="8.48635" r="3.25246" stroke="black" stroke-width="1.5"/>
<circle cx="53.7928" cy="32.0209" r="10.4569" stroke="black" stroke-width="1.5"/>
<path d="M60.3565 40.1858C60.5166 37.9978 59.4599 33.5897 53.9525 33.4616C48.4451 33.3335 46.9616 37.891 46.9082 40.1858" stroke="black" stroke-width="1.5"/>
<circle cx="53.6333" cy="29.2993" r="3.25246" stroke="black" stroke-width="1.5"/>
<circle cx="11.2069" cy="32.0209" r="10.4569" stroke="black" stroke-width="1.5"/>
<path d="M17.7705 40.1858C17.9306 37.9978 16.874 33.5897 11.3666 33.4616C5.85921 33.3335 4.37563 37.891 4.32227 40.1858" stroke="black" stroke-width="1.5"/>
<circle cx="11.0474" cy="29.2993" r="3.25246" stroke="black" stroke-width="1.5"/>
<circle cx="32.9803" cy="53.7943" r="10.4569" stroke="black" stroke-width="1.5"/>
<path d="M39.544 61.9592C39.7041 59.7712 38.6474 55.3631 33.14 55.2351C27.6326 55.107 26.1491 59.6645 26.0957 61.9592" stroke="black" stroke-width="1.5"/>
<circle cx="32.8208" cy="51.0728" r="3.25246" stroke="black" stroke-width="1.5"/>
<path d="M36.6618 28.1784C40.5042 30.8681 35.5945 35.7031 32.6594 37.7843C26.7357 31.8607 26.7357 29.4592 28.6569 28.1784C30.4047 27.0132 31.8589 28.4453 32.6594 29.6193C33.2464 28.4453 34.9008 27.0576 36.6618 28.1784Z" stroke="black" stroke-width="1.5"/>
</svg>
