<svg width="65" height="65" viewBox="0 0 65 65" fill="none" xmlns="http://www.w3.org/2000/svg">
<path d="M32.4998 22.3453C33.7335 22.3434 34.9572 22.5672 36.1104 23.0054C36.2351 23.0528 36.3679 23.0751 36.5012 23.0711C36.6346 23.0672 36.7658 23.037 36.8875 22.9823C37.0091 22.9276 37.1188 22.8494 37.2103 22.7523C37.3017 22.6552 37.3732 22.5411 37.4205 22.4164C37.4679 22.2917 37.4902 22.1589 37.4862 22.0255C37.4823 21.8922 37.4521 21.761 37.3974 21.6393C37.3427 21.5176 37.2645 21.408 37.1674 21.3165C37.0703 21.225 36.9562 21.1536 36.8315 21.1062C34.2221 20.1141 31.3513 20.0478 28.699 20.9185C26.0466 21.7891 23.7735 23.5439 22.2598 25.8894C20.7461 28.235 20.0835 31.0291 20.3828 33.8046C20.682 36.5801 21.9251 39.1688 23.904 41.1377C25.8829 43.1066 28.4778 44.3365 31.2548 44.6218C34.0318 44.907 36.8225 44.2302 39.1604 42.7047C41.4982 41.1791 43.2415 38.8972 44.0987 36.2404C44.9559 33.5837 44.8751 30.7132 43.8698 28.109C43.8245 27.9809 43.7541 27.8631 43.6625 27.7627C43.571 27.6623 43.4602 27.5813 43.3368 27.5245C43.2134 27.4677 43.0799 27.4362 42.9441 27.4319C42.8083 27.4277 42.673 27.4507 42.5463 27.4996C42.4195 27.5485 42.3039 27.6224 42.2062 27.7168C42.1085 27.8112 42.0308 27.9243 41.9776 28.0493C41.9244 28.1743 41.8968 28.3087 41.8964 28.4445C41.8961 28.5804 41.923 28.7149 41.9756 28.8402C42.7573 30.8628 42.8712 33.0825 42.3005 35.1744C41.7298 37.2664 40.5046 39.1208 38.8041 40.4662C37.1036 41.8117 35.0171 42.5776 32.85 42.6518C30.6829 42.7261 28.5489 42.1048 26.7603 40.8788C24.9717 39.6529 23.6225 37.8867 22.91 35.8387C22.1975 33.7907 22.1591 31.5684 22.8006 29.4971C23.4421 27.4257 24.7296 25.6141 26.4749 24.3272C28.2201 23.0403 30.3314 22.3458 32.4998 22.3453Z" fill="black"/>
<path d="M56.2512 0.0779016C56.0657 0.00076068 55.8616 -0.0196676 55.6645 0.0191993C55.4675 0.0580662 55.2864 0.154483 55.1441 0.296261L49.0504 6.39001C48.9553 6.48449 48.8799 6.59685 48.8285 6.72061C48.7771 6.84437 48.7507 6.97709 48.7508 7.1111V14.8146L32.0183 31.547C31.8278 31.7376 31.7207 31.9961 31.7207 32.2656C31.7207 32.5351 31.8278 32.7936 32.0183 32.9841C32.2089 33.1747 32.4674 33.2818 32.7369 33.2818C33.0064 33.2818 33.2649 33.1747 33.4554 32.9841L50.1879 16.2517H57.8914C58.1603 16.2506 58.4178 16.1428 58.6074 15.9521L64.7012 9.85837C64.8423 9.71635 64.9384 9.53577 64.9772 9.33932C65.0161 9.14287 64.9959 8.93932 64.9194 8.75426C64.8429 8.56921 64.7134 8.4109 64.5472 8.29925C64.3809 8.18759 64.1854 8.12757 63.9851 8.12673H58.3129L60.6437 5.79587C60.8343 5.6053 60.9414 5.34683 60.9414 5.07732C60.9414 4.80781 60.8343 4.54933 60.6437 4.35876C60.4532 4.16819 60.1947 4.06113 59.9252 4.06113C59.6557 4.06113 59.3972 4.16819 59.2066 4.35876L56.8758 6.68962V1.01735C56.8762 0.816557 56.8171 0.620141 56.7059 0.452928C56.5947 0.285714 56.4365 0.155208 56.2512 0.0779016ZM50.782 7.53259L54.8445 3.47009V8.72087L50.782 12.7834V7.53259ZM61.5324 10.158L57.4699 14.2205H52.2191L56.2816 10.158H61.5324Z" fill="black"/>
<path d="M63.9844 31.4858H58.9062C58.7424 26.9996 57.4349 22.6296 55.1078 18.7905C54.9677 18.5602 54.7419 18.395 54.48 18.3312C54.2181 18.2674 53.9416 18.3102 53.7113 18.4503C53.481 18.5904 53.3158 18.8162 53.252 19.0781C53.1882 19.34 53.231 19.6165 53.3711 19.8468C55.4936 23.3704 56.6869 27.3752 56.8395 31.4858H51.7969C51.5275 31.4858 51.2692 31.5928 51.0787 31.7833C50.8883 31.9738 50.7812 32.2321 50.7812 32.5015C50.7812 32.7708 50.8883 33.0292 51.0787 33.2196C51.2692 33.4101 51.5275 33.5171 51.7969 33.5171H56.8496C56.5882 39.6217 54.0458 45.4061 49.7252 49.7267C45.4047 54.0473 39.6203 56.5896 33.5156 56.8511V51.7983C33.5156 51.529 33.4086 51.2706 33.2182 51.0802C33.0277 50.8897 32.7694 50.7827 32.5 50.7827C32.2306 50.7827 31.9723 50.8897 31.7818 51.0802C31.5914 51.2706 31.4844 51.529 31.4844 51.7983V56.8511C25.3797 56.5896 19.5953 54.0473 15.2748 49.7267C10.9542 45.4061 8.41184 39.6217 8.15039 33.5171H13.2031C13.4725 33.5171 13.7308 33.4101 13.9213 33.2196C14.1117 33.0292 14.2188 32.7708 14.2188 32.5015C14.2188 32.2321 14.1117 31.9738 13.9213 31.7833C13.7308 31.5928 13.4725 31.4858 13.2031 31.4858H8.15039C8.41184 25.3812 10.9542 19.5968 15.2748 15.2762C19.5953 10.9556 25.3797 8.4133 31.4844 8.15186V12.6968C31.4844 12.9661 31.5914 13.2245 31.7818 13.4149C31.9723 13.6054 32.2306 13.7124 32.5 13.7124C32.7694 13.7124 33.0277 13.6054 33.2182 13.4149C33.4086 13.2245 33.5156 12.9661 33.5156 12.6968V8.16201C37.6448 8.32285 41.6646 9.53406 45.1953 11.6812C45.4219 11.7746 45.6747 11.7829 45.907 11.7045C46.1392 11.6262 46.3353 11.4665 46.4591 11.2549C46.5828 11.0433 46.6259 10.7941 46.5802 10.5532C46.5346 10.3124 46.4035 10.0961 46.2109 9.94443C42.377 7.59907 38.0065 6.27395 33.5156 6.09521V1.01709C33.5156 0.747729 33.4086 0.489401 33.2182 0.298935C33.0277 0.108468 32.7694 0.00146484 32.5 0.00146484C32.2306 0.00146484 31.9723 0.108468 31.7818 0.298935C31.5914 0.489401 31.4844 0.747729 31.4844 1.01709V6.12061C24.8412 6.38363 18.5412 9.14047 13.8401 13.8416C9.139 18.5427 6.38217 24.8427 6.11914 31.4858H1.01562C0.746265 31.4858 0.487936 31.5928 0.29747 31.7833C0.107003 31.9738 0 32.2321 0 32.5015C0 32.7708 0.107003 33.0292 0.29747 33.2196C0.487936 33.4101 0.746265 33.5171 1.01562 33.5171H6.11914C6.38217 40.1602 9.139 46.4603 13.8401 51.1614C18.5412 55.8625 24.8412 58.6193 31.4844 58.8823V63.9858C31.4844 64.2552 31.5914 64.5135 31.7818 64.704C31.9723 64.8945 32.2306 65.0015 32.5 65.0015C32.7694 65.0015 33.0277 64.8945 33.2182 64.704C33.4086 64.5135 33.5156 64.2552 33.5156 63.9858V58.8823C40.1588 58.6193 46.4588 55.8625 51.1599 51.1614C55.861 46.4603 58.6178 40.1602 58.8809 33.5171H63.9844C64.2537 33.5171 64.5121 33.4101 64.7025 33.2196C64.893 33.0292 65 32.7708 65 32.5015C65 32.2321 64.893 31.9738 64.7025 31.7833C64.5121 31.5928 64.2537 31.4858 63.9844 31.4858Z" fill="black"/>
</svg>
