<svg width="141" height="134" viewBox="0 0 141 134" fill="none" xmlns="http://www.w3.org/2000/svg">
<g style="mix-blend-mode:soft-light">
<path fill-rule="evenodd" clip-rule="evenodd" d="M61.4074 2.99764C62.1093 4.80939 61.2471 6.71596 59.4368 7.76174C58.7231 17.145 60.3522 28.6716 63.1719 39.4209C65.4155 47.974 68.3644 55.8512 71.3496 61.6219C74.0599 56.662 76.3333 50.2287 78.0397 42.5571C80.2484 32.6283 81.4705 20.7985 81.5413 7.74789C80.6481 7.22677 79.9477 6.47582 79.5927 5.55957C78.7195 3.30562 80.267 0.904913 83.0494 0.197455C85.8318 -0.510005 88.7953 0.743681 89.6686 2.99764C90.3214 4.68249 89.6216 6.44932 88.0643 7.52963C88.006 20.9121 86.7614 33.1404 84.4583 43.4941C82.9924 50.0836 81.0823 55.9866 78.729 60.9709C91.4844 53.2131 104.41 37.4562 108.316 12.2525C107.614 11.7532 107.067 11.0967 106.767 10.3222C105.894 8.06817 107.441 5.66746 110.224 4.96001C113.006 4.25255 115.97 5.50624 116.843 7.76019C117.549 9.58166 116.673 11.499 114.843 12.5411C110.894 38.6515 97.5426 55.9037 83.2379 64.8376C91.2174 62.9191 99.2106 59.785 106.506 54.9115C116.911 47.9611 126.095 37.3417 131.736 21.2705C131.271 20.8384 130.906 20.3231 130.68 19.741C129.807 17.4871 131.355 15.0863 134.137 14.379C136.92 13.6715 139.883 14.9252 140.756 17.1791C141.534 19.1851 140.394 21.3073 138.171 22.2487C132.231 39.4756 122.31 51.2021 110.655 58.9876C99.5142 66.43 86.9726 70.1487 75.2242 71.7428V131.344C75.2242 132.811 73.7642 134 71.9633 134C70.1623 134 68.7024 132.811 68.7024 131.344V71.6546C47.4342 68.1209 31.0764 59.5706 19.9198 49.8772C9.37601 40.7162 3.25851 30.326 2.32581 22.0047C1.36901 21.4818 0.616243 20.7024 0.243745 19.741C-0.629571 17.4871 0.918032 15.0863 3.70041 14.379C6.4828 13.6715 9.44632 14.9252 10.3196 17.1791C10.9558 18.821 10.3073 20.5408 8.83269 21.6272C9.63379 28.3994 14.8074 37.6879 24.6899 46.2743C32.9012 53.4088 44.214 59.9162 58.53 63.9324C44.8771 53.4905 29.1591 36.2992 26.4241 12.7623C25.3796 12.2413 24.5533 11.4246 24.1571 10.4021C23.2839 8.14814 24.8315 5.74744 27.6139 5.03998C30.3961 4.33252 33.3598 5.58621 34.233 7.84017C34.8457 9.4215 34.2668 11.075 32.9059 12.1654C35.4833 34.6456 50.8508 51.0258 63.9264 60.7895C61.2363 55.0078 58.7372 47.933 56.7925 40.5191C53.9144 29.5472 52.1734 17.5431 52.9211 7.51878C52.1999 7.01601 51.6374 6.34916 51.3315 5.55957C50.4581 3.30562 52.0057 0.904913 54.7881 0.197455C57.5705 -0.510005 60.534 0.743681 61.4074 2.99764Z" fill="#ac53dd"/>
</g>
</svg>
