<svg width="120" height="114" viewBox="0 0 120 114" fill="#23226f" xmlns="http://www.w3.org/2000/svg">
<g style="mix-blend-mode:soft-light">
<path fill-rule="evenodd" clip-rule="evenodd" d="M52.2616 2.55023C52.859 4.09157 52.1252 5.71357 50.5845 6.60327C49.9771 14.5861 51.3636 24.3923 53.7633 33.5372C55.6728 40.8137 58.1824 47.5152 60.723 52.4246C63.0297 48.2049 64.9645 42.7319 66.4168 36.2053C68.2965 27.7584 69.3366 17.6942 69.3969 6.59149C68.6367 6.14815 68.0406 5.50928 67.7385 4.72979C66.9953 2.81224 68.3123 0.769851 70.6803 0.167984C73.0483 -0.433885 75.5704 0.632684 76.3137 2.55023C76.8693 3.98361 76.2737 5.48674 74.9483 6.40581C74.8987 17.7908 73.8395 28.1941 71.8794 37.0024C70.6319 42.6084 69.0062 47.6304 67.0034 51.8707C77.859 45.2708 88.8594 31.8657 92.1837 10.4238C91.5865 9.99897 91.121 9.44049 90.8655 8.78154C90.1224 6.86397 91.4395 4.82157 93.8075 4.21971C96.1754 3.61785 98.6976 4.68441 99.4408 6.60195C100.041 8.15156 99.2965 9.78269 97.7389 10.6693C94.3777 32.8826 83.015 47.5598 70.8408 55.1604C77.6319 53.5282 84.4346 50.8618 90.6435 46.7157C99.4985 40.8027 107.315 31.7683 112.116 18.0958C111.72 17.7282 111.41 17.2898 111.217 16.7946C110.474 14.8771 111.792 12.8347 114.159 12.2329C116.527 11.631 119.049 12.6975 119.792 14.615C120.454 16.3216 119.484 18.1271 117.592 18.928C112.537 33.5837 104.094 43.56 94.1748 50.1835C84.6929 56.5151 74.0193 59.6788 64.0206 61.0349V111.74C64.0206 112.988 62.778 114 61.2454 114C59.7126 114 58.4701 112.988 58.4701 111.74V60.9599C40.3696 57.9536 26.448 50.6794 16.9531 42.4328C7.97958 34.6391 2.7732 25.7997 1.97941 18.7204C1.16511 18.2756 0.524463 17.6125 0.207443 16.7946C-0.535805 14.8771 0.781304 12.8347 3.14928 12.2329C5.51727 11.631 8.03942 12.6975 8.78268 14.615C9.3241 16.0119 8.77219 17.475 7.51718 18.3993C8.19897 24.1607 12.6021 32.0628 21.0127 39.3677C28.001 45.4373 37.6289 50.9735 49.8127 54.3903C38.1933 45.5069 24.8163 30.8814 22.4886 10.8575C21.5996 10.4142 20.8964 9.71943 20.5592 8.84953C19.816 6.932 21.1332 4.88961 23.5012 4.28775C25.8691 3.68587 28.3913 4.75245 29.1344 6.66999C29.6559 8.0153 29.1633 9.42201 28.005 10.3497C30.1985 29.4746 43.2773 43.41 54.4055 51.7164C52.116 46.7977 49.9891 40.7788 48.334 34.4714C45.8846 25.1372 44.4029 14.9247 45.0393 6.39657C44.4254 5.96884 43.9467 5.40153 43.6864 4.72979C42.9431 2.81224 44.2602 0.769851 46.6282 0.167984C48.9962 -0.433885 51.5183 0.632684 52.2616 2.55023Z" fill="#23226f"/>
</g>
</svg>
